<?xml version="1.0" encoding="UTF-8" standalone="no"?>
<!DOCTYPE svg PUBLIC "-//W3C//DTD SVG 1.1//EN" "http://www.w3.org/Graphics/SVG/1.1/DTD/svg11.dtd">
<svg xmlns="http://www.w3.org/2000/svg" version="1.1" viewBox="0 0 512 512">
<path fill="#000000" d="
  M 196.06 0.00
  L 204.06 0.00
  C 357.34 5.24 450.13 169.44 371.26 302.61
  A 0.75 0.74 38.2 0 0 371.37 303.51
  Q 434.08 366.17 496.70 428.79
  Q 510.84 442.93 512.00 463.06
  L 512.00 464.81
  C 510.48 491.34 491.31 510.55 464.94 512.00
  L 462.94 512.00
  Q 443.03 510.86 429.45 497.29
  Q 366.36 434.26 303.45 371.32
  A 0.68 0.67 -37.7 0 0 302.62 371.22
  C 217.70 422.19 108.07 403.42 45.44 326.56
  Q 2.69 274.08 0.00 204.94
  L 0.00 195.69
  C 3.54 88.23 88.19 3.04 196.06 0.00
  Z
  M 335.84 200.00
  A 135.84 135.84 0.0 0 0 200.00 64.16
  A 135.84 135.84 0.0 0 0 64.16 200.00
  A 135.84 135.84 0.0 0 0 200.00 335.84
  A 135.84 135.84 0.0 0 0 335.84 200.00
  Z"
/>
</svg>
